<svg xmlns="http://www.w3.org/2000/svg" width="105.956" height="98.575" viewBox="0 0 105.956 98.575">
    <g stroke-miterlimit="10">
        <g fill="none">
            <path d="M68.994 58.921L24.9 85.08C12.538 93.542 0 86.449 0 71.992V16.781C0 2.029 12.538-4.769 24.9 3.693L69 29.852c12.376 8.477 12.376 20.592-.006 29.069z" transform="rotate(14.98 10.095 76.903) rotate(-90 39.14 39.14)"/>
            <path fill="#f27269" d="M14.243 85.718c2.887 0 5.985-1.076 8.96-3.113l.081-.055.084-.05 44.01-26.109c2.66-1.833 4.693-3.85 6.042-5.994 1.235-1.963 1.86-3.985 1.86-6.01 0-2.026-.625-4.048-1.86-6.011-1.35-2.145-3.382-4.16-6.042-5.994L23.368 6.273l-.084-.05-.08-.054C20.176 4.096 17.034 3 14.116 3 11.02 3 8.33 4.205 6.336 6.484 4.155 8.983 3 12.544 3 16.781v55.211c0 2.15.314 4.145.933 5.931.572 1.649 1.391 3.086 2.436 4.273.997 1.131 2.175 2.009 3.503 2.608 1.345.607 2.816.914 4.37.914m0 3C6.233 88.718 0 82.186 0 71.992V16.781C0 6.434 6.168 0 14.116 0c3.385 0 7.091 1.166 10.783 3.693l44.095 26.16c12.382 8.476 12.382 20.59 0 29.068L24.9 85.08c-3.645 2.495-7.307 3.638-10.656 3.638z" transform="rotate(14.98 10.095 76.903) rotate(-90 39.14 39.14)"/>
        </g>
        <path fill="#f27269" stroke="rgba(0,0,0,0)" d="M0 44.036c0-3.062 1.547-4.611 4.612-4.611s4.612 1.549 4.612 4.611-1.539 4.612-4.612 4.612S0 47.1 0 44.036zm1.538-14.689V2.656C1.538.892 2.57 0 4.614 0s3.074.892 3.074 2.656v26.691c0 1.765-1.026 2.658-3.074 2.658s-3.076-.893-3.076-2.658z" transform="rotate(14.98 10.095 76.903) translate(39.747 18.557)"/>
    </g>
</svg>
