<svg xmlns="http://www.w3.org/2000/svg" width="16" height="13" viewBox="0 0 16 13">
    <path id="email_icon" fill="#dfe6e6" d="M67.019 199h-4.038c-3.969 0-5.981-2.034-5.981-6.046v-2.721c0-2.808 1.409-4.232 4.187-4.232h7.626c2.778 0 4.187 1.424 4.187 4.232v2.721c0 4.012-2.013 6.046-5.981 6.046zm-7.062-10a.9.9 0 0 0-.351 1.639l4.216 2.607a2.171 2.171 0 0 0 2.355 0l4.216-2.607a.9.9 0 0 0-.35-1.639.986.986 0 0 0-.491.156l-4.065 2.514a.96.96 0 0 1-.974 0l-4.065-2.514a.986.986 0 0 0-.491-.156z" data-name="email icon" transform="translate(-57 -186)"/>
</svg>
