<svg xmlns="http://www.w3.org/2000/svg" width="176.522" height="121.076" viewBox="0 0 176.522 121.076">
    <defs>
        <style>
            .cls-3{stroke:transparent;stroke-miterlimit:10;fill:#dfe6e6}
        </style>
    </defs>
    <g id="email_icon" data-name="email icon" transform="translate(-105.857 -187.221)">
        <path id="email_icon-2" fill="#f27269" stroke="rgba(0,0,0,0)" stroke-miterlimit="10" d="M61.533 79.924h-24.8C12.36 79.924 0 67.417 0 42.75V26.022C0 8.755 8.652 0 25.715 0h46.839c17.064 0 25.715 8.755 25.715 26.022V42.75c0 24.667-12.359 37.174-36.736 37.174zM18.162 18.447c-1.6 0-2.963.97-4.047 2.883-1.715 3.025-1.079 5.445 1.891 7.192L41.9 44.55a14.242 14.242 0 0 0 7.233 2.136 14.242 14.242 0 0 0 7.233-2.136l25.897-16.028c2.97-1.747 3.607-4.167 1.891-7.192-1.084-1.913-2.446-2.883-4.048-2.883a6.052 6.052 0 0 0-3.013.956L52.126 34.86a5.891 5.891 0 0 1-5.983 0L21.175 19.4a6.05 6.05 0 0 0-3.013-.953z" data-name="email icon" transform="rotate(14.98 -619.843 802.783)"/>
        <ellipse id="Ellipse_3" cx="35.5" cy="5" fill="#e8efef" data-name="Ellipse 3" rx="35.5" ry="5" transform="translate(177.767 298.297)"/>
        <path id="button" d="M3.94 0h21.013c2.62 0 3.94 1.391 3.94 4.14 0 2.749-1.321 4.14-3.94 4.14H3.94C1.327 8.28 0 6.889 0 4.14 0 1.391 1.327 0 3.94 0z" class="cls-3" transform="translate(142.481 205.765)"/>
        <path id="button-2" d="M3.94 0h29.171c2.62 0 3.94 1.391 3.94 4.14 0 2.749-1.321 4.14-3.94 4.14H3.94C1.327 8.28 0 6.889 0 4.14 0 1.391 1.327 0 3.94 0z" class="cls-3" data-name="button" transform="translate(126.164 229.943)"/>
        <path id="button-3" d="M3.94 0H9.8c2.62 0 3.94 1.391 3.94 4.14 0 2.749-1.321 4.14-3.94 4.14H3.94C1.327 8.28 0 6.889 0 4.14 0 1.391 1.327 0 3.94 0z" class="cls-3" data-name="button" transform="translate(106.357 229.943)"/>
        <path id="button-4" d="M3.94 8.28h.622c2.62 0 3.94-1.391 3.94-4.14C8.5 1.391 7.182 0 4.562 0H3.94C1.327 0 0 1.391 0 4.14c0 2.749 1.327 4.14 3.94 4.14z" class="cls-3" data-name="button" transform="rotate(180 81.608 130.904)"/>
        <path id="button-5" d="M3.94 8.28h15.772c2.62 0 3.94-1.391 3.94-4.14 0-2.749-1.321-4.14-3.94-4.14H3.94C1.327 0 0 1.391 0 4.14c0 2.749 1.327 4.14 3.94 4.14z" class="cls-3" data-name="button" transform="rotate(180 74.831 131.2)"/>
    </g>
</svg>
