<svg xmlns="http://www.w3.org/2000/svg" width="186.693" height="136.354" viewBox="0 0 186.693 136.354">
    <defs>
        <style>
            .cls-3{stroke:transparent;stroke-miterlimit:10;fill:#f27269}
        </style>
    </defs>
    <g id="email_icon" data-name="email icon" transform="translate(-114.898 -171.943)">
        <ellipse id="Ellipse_3" cx="35.5" cy="5" fill="#e8efef" data-name="Ellipse 3" rx="35.5" ry="5" transform="translate(172.767 298.297)"/>
        <path id="Union_11" fill="#dfe6e6" stroke="rgba(0,0,0,0)" stroke-miterlimit="10" d="M8.515 65.546c-1.374-2.381-.921-4.248 1.343-5.555l18.2-10.507c2.269-1.31 4.108-.766 5.483 1.615s.926 4.245-1.343 5.556L14 67.162a4.532 4.532 0 0 1-2.243.694c-1.269-.001-2.357-.771-3.242-2.31zm160.354-11.608l-20.4-4.326c-2.546-.588-3.526-2.242-2.908-4.92s2.224-3.736 4.771-3.148l20.4 4.327c2.552.59 3.526 2.242 2.908 4.92-.508 2.2-1.677 3.306-3.491 3.306a5.706 5.706 0 0 1-1.28-.159zM3.94 37.285c-2.614 0-3.94-1.391-3.94-4.14s1.327-4.14 3.94-4.14h25.171c2.62 0 3.94 1.39 3.94 4.14s-1.32 4.14-3.94 4.14zM145.041 23c-.85-2.615-.023-4.346 2.468-5.155l19.984-6.494c2.486-.807 4.177.105 5.027 2.72s.018 4.348-2.468 5.155l-19.984 6.493a5.283 5.283 0 0 1-1.623.285C146.83 26 145.691 25 145.041 23zM28.255 15.752L14.6 7.866c-2.268-1.31-2.717-3.175-1.342-5.556S16.467-.615 18.735.695l13.66 7.886c2.264 1.307 2.717 3.174 1.342 5.556-.888 1.538-1.973 2.309-3.24 2.309a4.528 4.528 0 0 1-2.242-.694z" data-name="Union 11" transform="rotate(-165.02 161.497 131.606)"/>
        <path id="Subtraction_21" d="M56.886 50.681a49.843 49.843 0 0 1-12.8-1.839l-17.371-4.656a47.265 47.265 0 0 1-13.734-5.88 28.541 28.541 0 0 1-8.839-8.948A28.76 28.76 0 0 1 .216 17.377 48.037 48.037 0 0 1 1.22 2.4L17.007.406A10.4 10.4 0 0 1 18.25.334a7.105 7.105 0 0 1 1.908.225 6.086 6.086 0 0 1 2.383 1.414l3.983 3.392A14.512 14.512 0 0 0 30.841 8.3a8.148 8.148 0 0 0 2.825.468 9.64 9.64 0 0 0 1.4-.1 7.928 7.928 0 0 0 2.208 4.989l-.783 2.943a6.431 6.431 0 0 0 .381 5.108 7.049 7.049 0 0 0 4.448 2.871 10.08 10.08 0 0 0 2.583.376c2.84 0 4.72-1.639 5.586-4.872l.787-2.935c3.082-.879 5.2-3.408 6.3-7.518l.163-.608c.149-.555.268-1.1.356-1.625l3.5-.2h.3a10.9 10.9 0 0 1 3.613.564A7.25 7.25 0 0 1 67.262 9.8l6.059 7.177a11.257 11.257 0 0 0 4.786 3.29 10.208 10.208 0 0 0 2.876.365 17.26 17.26 0 0 0 3.453-.365L88.8 19.3l-.633 2.362a54.941 54.941 0 0 1-6.409 15.3 30.2 30.2 0 0 1-9.5 9.643A27.87 27.87 0 0 1 59.7 50.572c-.914.072-1.859.109-2.814.109z" class="cls-3" data-name="Subtraction 21" transform="translate(160.014 240.822)"/>
        <path id="Intersection_5" d="M76.553 79.342a7.408 7.408 0 0 1-2.853-1.974l-7.635-9.044a7.63 7.63 0 0 0-2.765-2.271 7.9 7.9 0 0 0-3.59-.378l-3.834.217c.968-5.77-1.77-9.558-8.156-11.269-6.97-1.868-11.411.577-13.2 7.265l-.163.608a13.708 13.708 0 0 0-.51 4.642l-1.332.075a9.407 9.407 0 0 1-3.006-.461 9.8 9.8 0 0 1-2.652-1.566l-5.817-4.955a4.974 4.974 0 0 0-2.078-1.29 7.662 7.662 0 0 0-2.8-.085L0 60.894q.392-1.856.909-3.787l1.95-7.277c3.163-11.803 5.762-18.763 10.43-21.73 3.026-1.923 6.915-2.2 12.19-1.391l2.051-7.974C31.705 3.147 41.281-2.757 55.992 1.185l11.217 3.006a30.071 30.071 0 0 1 9.291 4.07 18.009 18.009 0 0 1 5.746 6.276A19.493 19.493 0 0 1 84.44 23a35.467 35.467 0 0 1-1.355 10.624 2.722 2.722 0 0 1-2.943 2.016 54.515 54.515 0 0 1-6.023-1.267c-1.03-.275-2.052-.581-3.035-.9a3.182 3.182 0 0 1-2.514-3.43c1.706-7.135-.913-11.687-7.783-13.528L55.4 15.062c-7.073-1.894-11.673.938-13.68 8.433l-.6 2.257a30.47 30.47 0 0 0-.94 4.444l30.459 8.161c11.047 2.96 17.524 5.511 20.121 10.5 1.224 2.354 1.616 5.31 1.232 9.3A94.167 94.167 0 0 1 88.9 72.885L87.582 77.8l-7.457 1.657a9.1 9.1 0 0 1-1.662.151 6.293 6.293 0 0 1-1.91-.266z" class="cls-3" data-name="Intersection 5" transform="rotate(-6.02 1807.125 -1379.97)"/>
    </g>
</svg>
