<svg xmlns="http://www.w3.org/2000/svg" width="14.627" height="17.319" viewBox="0 0 14.627 17.319">
    <path id="pass_icon" fill="#dfe6e6" stroke="rgba(0,0,0,0)" stroke-miterlimit="10" d="M-439.562 16.319c-3.608 0-5.438-1.952-5.438-5.8V9.357c0-1.882.108-3.022.681-3.649a2.615 2.615 0 0 1 1.739-.692q-.006-.244-.006-.52v-.75c0-2.486 1.186-3.746 3.511-3.746h1.777a3.451 3.451 0 0 1 2.631.94 3.988 3.988 0 0 1 .88 2.806V4.5q0 .276-.006.52a2.615 2.615 0 0 1 1.742.693 2.527 2.527 0 0 1 .55 1.335 14.58 14.58 0 0 1 .127 2.314v1.16a8.521 8.521 0 0 1-.341 2.532 4.66 4.66 0 0 1-1.022 1.814 4.261 4.261 0 0 1-1.7 1.091 7.075 7.075 0 0 1-2.375.365zm-.282-6.43v.1a1.472 1.472 0 0 0 .634 1.37v.468a.9.9 0 0 0 1.029.995.9.9 0 0 0 1.029-.995v-.468a1.473 1.473 0 0 0 .634-1.37v-.1a1.45 1.45 0 0 0-1.663-1.607 1.45 1.45 0 0 0-1.663 1.607zm3.735-4.941a4.757 4.757 0 0 0 .037-.7v-.36c0-1.194-.568-1.8-1.687-1.8h-.854c-1.12 0-1.687.606-1.687 1.8v.36a4.672 4.672 0 0 0 .038.7z" data-name="pass icon" transform="translate(445.5 .5)"/>
</svg>
